<?xml version="1.0" encoding="UTF-8" standalone="no"?>
<!-- Created with Inkscape (http://www.inkscape.org/) -->

<svg
   xmlns:dc="http://purl.org/dc/elements/1.1/"
   xmlns:cc="http://creativecommons.org/ns#"
   xmlns:rdf="http://www.w3.org/1999/02/22-rdf-syntax-ns#"
   xmlns:svg="http://www.w3.org/2000/svg"
   xmlns="http://www.w3.org/2000/svg"
   xmlns:xlink="http://www.w3.org/1999/xlink"
   xmlns:sodipodi="http://sodipodi.sourceforge.net/DTD/sodipodi-0.dtd"
   xmlns:inkscape="http://www.inkscape.org/namespaces/inkscape"
   width="144.01849mm"
   height="89.791496mm"
   viewBox="0 0 144.01849 89.791496"
   version="1.1"
   id="svg8"
   inkscape:version="0.92.4 (5da689c313, 2019-01-14)"
   sodipodi:docname="diagram molten.svg">
  <defs
     id="defs2">
    <marker
       inkscape:stockid="Arrow1Lend"
       orient="auto"
       refY="0"
       refX="0"
       id="marker7586"
       style="overflow:visible"
       inkscape:isstock="true">
      <path
         id="path7584"
         d="M 0,0 5,-5 -12.5,0 5,5 Z"
         style="fill:#000000;fill-opacity:1;fill-rule:evenodd;stroke:#000000;stroke-width:1.00000003pt;stroke-opacity:1"
         transform="matrix(-0.8,0,0,-0.8,-10,0)"
         inkscape:connector-curvature="0" />
    </marker>
    <marker
       inkscape:isstock="true"
       style="overflow:visible"
       id="marker7332"
       refX="0"
       refY="0"
       orient="auto"
       inkscape:stockid="Arrow1Lend"
       inkscape:collect="always">
      <path
         transform="matrix(-0.8,0,0,-0.8,-10,0)"
         style="fill:#000000;fill-opacity:1;fill-rule:evenodd;stroke:#000000;stroke-width:1.00000003pt;stroke-opacity:1"
         d="M 0,0 5,-5 -12.5,0 5,5 Z"
         id="path7330"
         inkscape:connector-curvature="0" />
    </marker>
    <marker
       inkscape:stockid="Arrow1Mend"
       orient="auto"
       refY="0"
       refX="0"
       id="Arrow1Mend"
       style="overflow:visible"
       inkscape:isstock="true">
      <path
         id="path4533"
         d="M 0,0 5,-5 -12.5,0 5,5 Z"
         style="fill:#000000;fill-opacity:1;fill-rule:evenodd;stroke:#000000;stroke-width:1.00000003pt;stroke-opacity:1"
         transform="matrix(-0.4,0,0,-0.4,-4,0)"
         inkscape:connector-curvature="0" />
    </marker>
    <marker
       inkscape:stockid="Arrow1Lend"
       orient="auto"
       refY="0"
       refX="0"
       id="marker7194"
       style="overflow:visible"
       inkscape:isstock="true">
      <path
         id="path7192"
         d="M 0,0 5,-5 -12.5,0 5,5 Z"
         style="fill:#000000;fill-opacity:1;fill-rule:evenodd;stroke:#000000;stroke-width:1.00000003pt;stroke-opacity:1"
         transform="matrix(-0.8,0,0,-0.8,-10,0)"
         inkscape:connector-curvature="0" />
    </marker>
    <marker
       inkscape:isstock="true"
       style="overflow:visible"
       id="marker6760"
       refX="0"
       refY="0"
       orient="auto"
       inkscape:stockid="Arrow1Lend"
       inkscape:collect="always">
      <path
         transform="matrix(-0.8,0,0,-0.8,-10,0)"
         style="fill:#000000;fill-opacity:1;fill-rule:evenodd;stroke:#000000;stroke-width:1.00000003pt;stroke-opacity:1"
         d="M 0,0 5,-5 -12.5,0 5,5 Z"
         id="path6758"
         inkscape:connector-curvature="0" />
    </marker>
    <linearGradient
       inkscape:collect="always"
       id="linearGradient6690">
      <stop
         style="stop-color:#000000;stop-opacity:1;"
         offset="0"
         id="stop6686" />
      <stop
         style="stop-color:#000000;stop-opacity:0;"
         offset="1"
         id="stop6688" />
    </linearGradient>
    <linearGradient
       inkscape:collect="always"
       id="linearGradient6666">
      <stop
         style="stop-color:#00005f;stop-opacity:1;"
         offset="0"
         id="stop6662" />
      <stop
         style="stop-color:#00005f;stop-opacity:0;"
         offset="1"
         id="stop6664" />
    </linearGradient>
    <linearGradient
       inkscape:collect="always"
       id="linearGradient6382">
      <stop
         style="stop-color:#00005f;stop-opacity:1;"
         offset="0"
         id="stop6378" />
      <stop
         style="stop-color:#00005f;stop-opacity:0;"
         offset="1"
         id="stop6380" />
    </linearGradient>
    <marker
       inkscape:stockid="Arrow1Lend"
       orient="auto"
       refY="0"
       refX="0"
       id="marker5530"
       style="overflow:visible"
       inkscape:isstock="true">
      <path
         id="path5528"
         d="M 0,0 5,-5 -12.5,0 5,5 Z"
         style="fill:#000000;fill-opacity:1;fill-rule:evenodd;stroke:#000000;stroke-width:1.00000003pt;stroke-opacity:1"
         transform="matrix(-0.8,0,0,-0.8,-10,0)"
         inkscape:connector-curvature="0" />
    </marker>
    <marker
       inkscape:stockid="Arrow1Lend"
       orient="auto"
       refY="0"
       refX="0"
       id="marker4852"
       style="overflow:visible"
       inkscape:isstock="true">
      <path
         id="path4850"
         d="M 0,0 5,-5 -12.5,0 5,5 Z"
         style="fill:#000000;fill-opacity:1;fill-rule:evenodd;stroke:#000000;stroke-width:1.00000003pt;stroke-opacity:1"
         transform="matrix(-0.8,0,0,-0.8,-10,0)"
         inkscape:connector-curvature="0" />
    </marker>
    <marker
       inkscape:stockid="Arrow1Lend"
       orient="auto"
       refY="0"
       refX="0"
       id="Arrow1Lend"
       style="overflow:visible"
       inkscape:isstock="true">
      <path
         id="path4527"
         d="M 0,0 5,-5 -12.5,0 5,5 Z"
         style="fill:#000000;fill-opacity:1;fill-rule:evenodd;stroke:#000000;stroke-width:1.00000003pt;stroke-opacity:1"
         transform="matrix(-0.8,0,0,-0.8,-10,0)"
         inkscape:connector-curvature="0" />
    </marker>
    <linearGradient
       inkscape:collect="always"
       xlink:href="#linearGradient6382"
       id="linearGradient6388"
       x1="8.3622007"
       y1="223.58299"
       x2="438.79999"
       y2="223.58299"
       gradientUnits="userSpaceOnUse" />
    <radialGradient
       inkscape:collect="always"
       xlink:href="#linearGradient6666"
       id="radialGradient6670"
       cx="267.828"
       cy="267.82901"
       fx="267.828"
       fy="267.82901"
       r="169.573"
       gradientTransform="matrix(1,0,0,1.5823804,0,-155.97837)"
       gradientUnits="userSpaceOnUse" />
    <radialGradient
       inkscape:collect="always"
       xlink:href="#linearGradient6690"
       id="radialGradient6694"
       cx="267.828"
       cy="267.82901"
       fx="267.828"
       fy="267.82901"
       r="169.073"
       gradientTransform="matrix(1,0,0,1.5841027,0,-156.43965)"
       gradientUnits="userSpaceOnUse" />
    <linearGradient
       inkscape:collect="always"
       xlink:href="#linearGradient6382"
       id="linearGradient6696"
       gradientUnits="userSpaceOnUse"
       x1="8.3622007"
       y1="223.58299"
       x2="438.79999"
       y2="223.58299" />
    <linearGradient
       inkscape:collect="always"
       xlink:href="#linearGradient6382"
       id="linearGradient6698"
       gradientUnits="userSpaceOnUse"
       x1="8.3622007"
       y1="223.58299"
       x2="438.79999"
       y2="223.58299" />
    <linearGradient
       inkscape:collect="always"
       xlink:href="#linearGradient6382"
       id="linearGradient6700"
       gradientUnits="userSpaceOnUse"
       x1="8.3622007"
       y1="223.58299"
       x2="438.79999"
       y2="223.58299" />
    <linearGradient
       inkscape:collect="always"
       xlink:href="#linearGradient6382"
       id="linearGradient6702"
       gradientUnits="userSpaceOnUse"
       x1="8.3622007"
       y1="223.58299"
       x2="438.79999"
       y2="223.58299" />
    <linearGradient
       inkscape:collect="always"
       xlink:href="#linearGradient6382"
       id="linearGradient6704"
       gradientUnits="userSpaceOnUse"
       x1="8.3622007"
       y1="223.58299"
       x2="438.79999"
       y2="223.58299" />
    <linearGradient
       inkscape:collect="always"
       xlink:href="#linearGradient6382"
       id="linearGradient6706"
       gradientUnits="userSpaceOnUse"
       x1="8.3622007"
       y1="223.58299"
       x2="438.79999"
       y2="223.58299" />
    <linearGradient
       inkscape:collect="always"
       xlink:href="#linearGradient6382"
       id="linearGradient6708"
       gradientUnits="userSpaceOnUse"
       x1="8.3622007"
       y1="223.58299"
       x2="438.79999"
       y2="223.58299" />
    <linearGradient
       inkscape:collect="always"
       xlink:href="#linearGradient6382"
       id="linearGradient6710"
       gradientUnits="userSpaceOnUse"
       x1="8.3622007"
       y1="223.58299"
       x2="438.79999"
       y2="223.58299" />
    <linearGradient
       inkscape:collect="always"
       xlink:href="#linearGradient6382"
       id="linearGradient6712"
       gradientUnits="userSpaceOnUse"
       x1="8.3622007"
       y1="223.58299"
       x2="438.79999"
       y2="223.58299" />
    <linearGradient
       inkscape:collect="always"
       xlink:href="#linearGradient6382"
       id="linearGradient6714"
       gradientUnits="userSpaceOnUse"
       x1="8.3622007"
       y1="223.58299"
       x2="438.79999"
       y2="223.58299" />
    <linearGradient
       inkscape:collect="always"
       xlink:href="#linearGradient6382"
       id="linearGradient6716"
       gradientUnits="userSpaceOnUse"
       x1="8.3622007"
       y1="223.58299"
       x2="438.79999"
       y2="223.58299" />
    <linearGradient
       inkscape:collect="always"
       xlink:href="#linearGradient6382"
       id="linearGradient6718"
       gradientUnits="userSpaceOnUse"
       x1="8.3622007"
       y1="223.58299"
       x2="438.79999"
       y2="223.58299" />
    <linearGradient
       inkscape:collect="always"
       xlink:href="#linearGradient6382"
       id="linearGradient6720"
       gradientUnits="userSpaceOnUse"
       x1="8.3622007"
       y1="223.58299"
       x2="438.79999"
       y2="223.58299" />
    <linearGradient
       inkscape:collect="always"
       xlink:href="#linearGradient6382"
       id="linearGradient6722"
       gradientUnits="userSpaceOnUse"
       x1="8.3622007"
       y1="223.58299"
       x2="438.79999"
       y2="223.58299" />
    <linearGradient
       inkscape:collect="always"
       xlink:href="#linearGradient6382"
       id="linearGradient6724"
       gradientUnits="userSpaceOnUse"
       x1="8.3622007"
       y1="223.58299"
       x2="438.79999"
       y2="223.58299" />
    <linearGradient
       inkscape:collect="always"
       xlink:href="#linearGradient6382"
       id="linearGradient6726"
       gradientUnits="userSpaceOnUse"
       x1="8.3622007"
       y1="223.58299"
       x2="438.79999"
       y2="223.58299" />
    <linearGradient
       inkscape:collect="always"
       xlink:href="#linearGradient6382"
       id="linearGradient6728"
       gradientUnits="userSpaceOnUse"
       x1="8.3622007"
       y1="223.58299"
       x2="438.79999"
       y2="223.58299" />
    <linearGradient
       inkscape:collect="always"
       xlink:href="#linearGradient6382"
       id="linearGradient6730"
       gradientUnits="userSpaceOnUse"
       x1="8.3622007"
       y1="223.58299"
       x2="438.79999"
       y2="223.58299" />
    <linearGradient
       inkscape:collect="always"
       xlink:href="#linearGradient6382"
       id="linearGradient6732"
       gradientUnits="userSpaceOnUse"
       x1="8.3622007"
       y1="223.58299"
       x2="438.79999"
       y2="223.58299" />
    <linearGradient
       inkscape:collect="always"
       xlink:href="#linearGradient6382"
       id="linearGradient6734"
       gradientUnits="userSpaceOnUse"
       x1="8.3622007"
       y1="223.58299"
       x2="438.79999"
       y2="223.58299" />
    <linearGradient
       inkscape:collect="always"
       xlink:href="#linearGradient6382"
       id="linearGradient6736"
       gradientUnits="userSpaceOnUse"
       x1="8.3622007"
       y1="223.58299"
       x2="438.79999"
       y2="223.58299" />
    <linearGradient
       inkscape:collect="always"
       xlink:href="#linearGradient6382"
       id="linearGradient6738"
       gradientUnits="userSpaceOnUse"
       x1="8.3622007"
       y1="223.58299"
       x2="438.79999"
       y2="223.58299" />
    <linearGradient
       inkscape:collect="always"
       xlink:href="#linearGradient6382"
       id="linearGradient6740"
       gradientUnits="userSpaceOnUse"
       x1="8.3622007"
       y1="223.58299"
       x2="438.79999"
       y2="223.58299" />
    <linearGradient
       inkscape:collect="always"
       xlink:href="#linearGradient6382"
       id="linearGradient6742"
       gradientUnits="userSpaceOnUse"
       x1="8.3622007"
       y1="223.58299"
       x2="438.79999"
       y2="223.58299" />
  </defs>
  <sodipodi:namedview
     id="base"
     pagecolor="#ffffff"
     bordercolor="#666666"
     borderopacity="1.0"
     inkscape:pageopacity="0.0"
     inkscape:pageshadow="2"
     inkscape:zoom="0.7"
     inkscape:cx="443.74497"
     inkscape:cy="211.53635"
     inkscape:document-units="mm"
     inkscape:current-layer="layer1"
     showgrid="false"
     inkscape:window-width="3840"
     inkscape:window-height="2035"
     inkscape:window-x="-13"
     inkscape:window-y="-13"
     inkscape:window-maximized="1"
     fit-margin-top="0"
     fit-margin-left="0"
     fit-margin-right="0"
     fit-margin-bottom="0" />
  <metadata
     id="metadata5">
    <rdf:RDF>
      <cc:Work
         rdf:about="">
        <dc:format>image/svg+xml</dc:format>
        <dc:type
           rdf:resource="http://purl.org/dc/dcmitype/StillImage" />
        <dc:title></dc:title>
      </cc:Work>
    </rdf:RDF>
  </metadata>
  <g
     inkscape:label="Layer 1"
     inkscape:groupmode="layer"
     id="layer1"
     transform="translate(-45.335934,-16.311878)">
    <text
       xml:space="preserve"
       style="font-style:normal;font-weight:normal;font-size:10.58333302px;line-height:1.25;font-family:sans-serif;letter-spacing:0px;word-spacing:0px;fill:#000000;fill-opacity:1;stroke:none;stroke-width:0.26458332"
       x="106.97463"
       y="100.75735"
       id="text5398"><tspan
         sodipodi:role="line"
         x="106.97463"
         y="110.41284"
         style="stroke-width:0.26458332"
         id="tspan5400" /></text>
    <flowRoot
       xml:space="preserve"
       id="flowRoot5408"
       style="font-style:normal;font-weight:normal;font-size:40px;line-height:1.25;font-family:sans-serif;letter-spacing:0px;word-spacing:0px;fill:#000000;fill-opacity:1;stroke:none"
       transform="scale(0.26458333)"><flowRegion
         id="flowRegion5410"><rect
           id="rect5412"
           width="130.56221"
           height="71.468292"
           x="263.64981"
           y="135.09557" /></flowRegion><flowPara
         id="flowPara5414"></flowPara></flowRoot>    <g
       id="g6134"
       transform="matrix(0.08541302,0,0,0.08541302,89.038106,15.862361)"
       style="fill:#dc0000;fill-opacity:1">
      <g
         id="XMLID_13_"
         style="fill:#dc0000;fill-opacity:1">
	<path
   d="m 160.417,223.248 -43.11,-4.605 c -6.823,-0.729 -12.921,-3.524 -17.75,-7.69 -7.446,1.699 -14.689,-2.835 -16.627,-9.974 l -16.575,-61.065 0.009,291.841 c 0,11.77 9.54,21.31 21.31,21.31 11.77,0 21.31,-9.54 21.31,-21.31 0,-4.527 0,-138.803 0,-165.705 0,-2.556 2.072,-4.628 4.627,-4.628 2.527,0 4.574,2.047 4.574,4.574 0,27.171 0,163.23 0,165.759 0,11.77 9.54,21.31 21.31,21.31 11.77,0 21.31,-9.54 21.31,-21.31 z"
   id="XMLID_14_"
   inkscape:connector-curvature="0"
   style="fill:#dc0000;fill-opacity:1" />

	<path
   d="m 124.211,154.01 11.157,1.192 -11.692,-43.075 -46.902,12.73 13.57,49.996 c 5.093,-13.526 18.828,-22.449 33.867,-20.843 z"
   id="XMLID_1080_"
   inkscape:connector-curvature="0"
   style="fill:#dc0000;fill-opacity:1" />

	<path
   d="m 203.091,133.053 c 0,0 0,-0.001 0,-0.002 C 202.974,109.996 184.124,91.24 161.068,91.24 L 80.302,91.58 46.723,78.852 76.826,40.755 c -0.034,0.646 -0.052,1.295 -0.052,1.949 0,20.326 16.478,36.804 36.805,36.804 20.326,0 36.804,-16.478 36.804,-36.804 0,-20.326 -16.478,-36.805 -36.804,-36.805 -12.349,0 -23.269,6.088 -29.945,15.42 -0.882,-3.777 -2.99,-7.296 -6.27,-9.888 C 69.671,5.351 58.502,6.66 52.421,14.355 l -48.596,61.5 c -3.509,4.441 -4.691,10.289 -3.182,15.744 1.509,5.456 5.528,9.865 10.821,11.871 l 51.442,19.499 c 0.786,-5.773 4.983,-10.207 10.2,-11.623 22.218,-6.031 25.384,-6.89 46.902,-12.73 6.961,-1.889 14.96,1.671 17.324,10.382 l 12.974,47.8 10.11,1.08 V 133.25 c 0,-1.973 1.597,-3.574 3.569,-3.579 1.973,-0.005 3.579,1.587 3.589,3.56 v 0.002 c 0.03,5.991 0.202,40.257 0.202,40.257 l -45.133,-4.821 c -9.755,-1.043 -18.502,6.021 -19.544,15.772 -1.041,9.752 6.02,18.502 15.772,19.544 l 64.877,6.93 c 5.014,0.536 10.034,-1.086 13.79,-4.481 3.75,-3.388 5.879,-8.213 5.854,-13.267 z"
   id="XMLID_1081_"
   inkscape:connector-curvature="0"
   style="fill:#dc0000;fill-opacity:1" />

	<path
   d="m 447.474,97.197 c 5.44,-2.007 9.439,-6.708 10.547,-12.4 1.108,-5.692 -0.837,-11.551 -5.129,-15.45 L 387.11,9.575 c -6.782,-6.163 -17.278,-5.659 -23.44,1.122 -3.031,3.335 -4.441,7.568 -4.294,11.742 -6.915,-9.604 -18.184,-15.862 -30.921,-15.862 -13.575,0 -25.484,7.108 -32.229,17.8 0.619,-4.675 -0.74,-9.582 -4.16,-13.346 -6.163,-6.783 -16.659,-7.286 -23.44,-1.122 L 202.842,69.68 c -4.292,3.899 -6.236,9.758 -5.129,15.45 1.107,5.692 5.106,10.394 10.548,12.4 l 71.523,26.372 -0.196,306.64 c 0,12.18 9.873,22.053 22.053,22.053 12.18,0 22.053,-9.873 22.053,-22.053 V 259.034 c 0,-2.629 2.131,-4.761 4.761,-4.761 2.629,0 4.761,2.131 4.761,4.761 v 171.508 c 0,12.18 9.873,22.053 22.053,22.053 12.18,0 22.053,-9.873 22.053,-22.053 l -0.196,-307.406 z m -90.739,-1.915 -12.303,32.141 -8.806,23.007 4.935,-23.246 c 0.346,-1.633 0.095,-3.335 -0.709,-4.797 l -6.777,-12.325 6.025,-10.958 c 0.418,-0.76 0.403,-1.684 -0.038,-2.43 -0.441,-0.746 -1.244,-1.204 -2.111,-1.204 h -16.535 c -0.867,0 -1.67,0.458 -2.111,1.204 -0.441,0.746 -0.456,1.67 -0.038,2.43 l 6.025,10.958 -6.802,12.371 c -0.789,1.435 -1.047,3.102 -0.728,4.707 l 4.315,23.291 L 312.482,126.83 300.53,96.18 245.402,75.853 290.945,34.472 c 0.403,-0.367 0.781,-0.75 1.14,-1.146 -1.115,3.582 -1.717,7.39 -1.717,11.338 0,21.035 17.052,38.087 38.087,38.087 21.035,0 38.087,-17.052 38.087,-38.087 0,-3.535 -0.492,-6.954 -1.393,-10.202 l 45.186,41.057 z"
   id="XMLID_1089_"
   inkscape:connector-curvature="0"
   style="fill:#dc0000;fill-opacity:1" />

</g>
      <g
         id="g6077"
         style="fill:#dc0000;fill-opacity:1">
</g>
      <g
         id="g6079"
         style="fill:#dc0000;fill-opacity:1">
</g>
      <g
         id="g6081"
         style="fill:#dc0000;fill-opacity:1">
</g>
      <g
         id="g6083"
         style="fill:#dc0000;fill-opacity:1">
</g>
      <g
         id="g6085"
         style="fill:#dc0000;fill-opacity:1">
</g>
      <g
         id="g6087"
         style="fill:#dc0000;fill-opacity:1">
</g>
      <g
         id="g6089"
         style="fill:#dc0000;fill-opacity:1">
</g>
      <g
         id="g6091"
         style="fill:#dc0000;fill-opacity:1">
</g>
      <g
         id="g6093"
         style="fill:#dc0000;fill-opacity:1">
</g>
      <g
         id="g6095"
         style="fill:#dc0000;fill-opacity:1">
</g>
      <g
         id="g6097"
         style="fill:#dc0000;fill-opacity:1">
</g>
      <g
         id="g6099"
         style="fill:#dc0000;fill-opacity:1">
</g>
      <g
         id="g6101"
         style="fill:#dc0000;fill-opacity:1">
</g>
      <g
         id="g6103"
         style="fill:#dc0000;fill-opacity:1">
</g>
      <g
         id="g6105"
         style="fill:#dc0000;fill-opacity:1">
</g>
    </g>
    <g
       id="g6376"
       transform="matrix(0.08923041,0,0,0.08923041,150.20024,66.158069)"
       style="fill:#dc7500;fill-opacity:1;stroke:url(#linearGradient6388);stroke-width:0.99741781;stroke-miterlimit:4;stroke-dasharray:none;stroke-opacity:1">
      <g
         id="g6313"
         style="fill:#dc7500;fill-opacity:1;stroke:url(#linearGradient6712);stroke-width:0.99741781;stroke-miterlimit:4;stroke-dasharray:none;stroke-opacity:1">
	<path
   id="path6297"
   d="m 231.903,244.717 c 3.353,0 6.645,0.266 9.858,0.769 v -16.061 c 0,-8.586 3.462,-16.37 9.051,-22.059 -0.911,-0.232 -1.86,-0.369 -2.844,-0.369 H 220.39 c -4.036,5.31 -9.645,9.295 -16.053,11.335 -10e-4,0.059 -0.009,0.115 -0.009,0.174 v 23.165 l -14.9,-14.9 0.041,34.246 c 11.44,-10.29 26.463,-16.3 42.434,-16.3 z"
   inkscape:connector-curvature="0"
   style="fill:#dc7500;fill-opacity:1;stroke:url(#linearGradient6696);stroke-width:0.99741781;stroke-miterlimit:4;stroke-dasharray:none;stroke-opacity:1" />

	<path
   id="path6299"
   d="m 231.903,351.768 c 20.107,0 37.285,-13.77 42.155,-32.669 l -9.446,-9.446 c -4.626,-4.626 -7.496,-10.347 -8.638,-16.336 -0.784,-4.109 -0.762,-8.344 0.095,-12.441 -5.295,-3.464 -9.483,-8.481 -11.927,-14.396 -3.992,-1.172 -8.077,-1.764 -12.239,-1.764 -20.67,0 -37.929,14.47 -42.389,33.684 0.018,14.982 0.006,4.817 0.024,19.786 4.538,19.338 21.911,33.582 42.365,33.582 z"
   inkscape:connector-curvature="0"
   style="fill:#dc7500;fill-opacity:1;stroke:url(#linearGradient6698);stroke-width:0.99741781;stroke-miterlimit:4;stroke-dasharray:none;stroke-opacity:1" />

	<path
   id="path6301"
   d="m 298.706,336.048 c -2.93,-0.553 -5.747,-1.519 -8.385,-2.865 -9.814,22.9 -32.547,38.585 -58.418,38.585 -15.618,0 -30.665,-5.767 -42.321,-16.202 l 0.041,33.954 14.706,-14.706 v 23.165 c 0,6.357 5.153,11.509 11.509,11.509 h 32.131 c 6.357,0 11.509,-5.153 11.509,-11.509 v -23.165 l 16.38,16.38 c 4.495,4.495 11.782,4.495 16.276,0 l 22.72,-22.72 c 4.495,-4.495 4.495,-11.782 0,-16.276 z"
   inkscape:connector-curvature="0"
   style="fill:#dc7500;fill-opacity:1;stroke:url(#linearGradient6700);stroke-width:0.99741781;stroke-miterlimit:4;stroke-dasharray:none;stroke-opacity:1" />

	<path
   id="path6303"
   d="m 426.793,217.914 h -8.776 c -0.851,-2.406 -1.816,-4.757 -2.907,-7.038 l 6.2,-6.2 c 4.495,-4.494 4.495,-11.781 0,-16.276 l -17.722,-17.722 c -2.247,-2.248 -5.193,-3.371 -8.138,-3.371 -2.945,0 -5.891,1.123 -8.138,3.371 l -6.2,6.199 c -2.281,-1.091 -4.632,-2.056 -7.038,-2.907 v -8.775 c 0,-6.356 -5.153,-11.51 -11.509,-11.51 H 337.5 c -6.356,0 -11.509,5.153 -11.509,11.51 v 8.775 c -2.406,0.851 -4.757,1.816 -7.038,2.907 l -6.2,-6.199 c -2.247,-2.248 -5.193,-3.371 -8.138,-3.371 -2.946,0 -5.891,1.123 -8.138,3.371 L 278.755,188.4 c -4.495,4.495 -4.495,11.782 0,16.276 l 6.2,6.2 c -1.091,2.281 -2.056,4.632 -2.907,7.038 h -8.776 c -6.357,0 -11.509,5.153 -11.509,11.51 v 25.063 c 0,6.356 5.153,11.51 11.509,11.51 h 8.776 c 0.851,2.406 1.816,4.757 2.907,7.038 l -6.2,6.2 c -4.495,4.494 -4.495,11.781 0,16.276 l 17.722,17.723 c 2.247,2.247 5.193,3.37 8.138,3.37 2.946,0 5.891,-1.123 8.138,-3.37 l 6.2,-6.2 c 2.281,1.091 4.632,2.057 7.038,2.907 v 8.776 c 0,6.355 5.153,11.509 11.509,11.509 h 25.063 c 6.356,0 11.509,-5.153 11.509,-11.509 v -8.776 c 2.406,-0.851 4.757,-1.816 7.038,-2.907 l 6.2,6.2 c 2.247,2.247 5.193,3.37 8.138,3.37 2.946,0 5.891,-1.123 8.138,-3.37 l 17.722,-17.723 c 4.495,-4.495 4.495,-11.782 0,-16.276 l -6.2,-6.2 c 1.091,-2.281 2.056,-4.632 2.907,-7.038 h 8.776 c 6.356,0 11.509,-5.153 11.509,-11.51 v -25.063 c 0.002,-6.357 -5.151,-11.51 -11.507,-11.51 z m -76.761,80.707 c -31.246,0 -56.666,-25.42 -56.666,-56.666 0,-31.245 25.42,-56.665 56.666,-56.665 31.246,0 56.666,25.42 56.666,56.665 0,31.246 -25.42,56.666 -56.666,56.666 z"
   inkscape:connector-curvature="0"
   style="fill:#dc7500;fill-opacity:1;stroke:url(#linearGradient6702);stroke-width:0.99741781;stroke-miterlimit:4;stroke-dasharray:none;stroke-opacity:1" />

	<path
   id="path6305"
   d="m 350.032,205.29 c -20.218,0 -36.666,16.448 -36.666,36.665 0,20.218 16.448,36.666 36.666,36.666 20.218,0 36.666,-16.448 36.666,-36.666 0,-20.217 -16.448,-36.665 -36.666,-36.665 z"
   inkscape:connector-curvature="0"
   style="fill:#dc7500;fill-opacity:1;stroke:url(#linearGradient6704);stroke-width:0.99741781;stroke-miterlimit:4;stroke-dasharray:none;stroke-opacity:1" />

	<path
   id="path6307"
   d="m 169.417,217.363 -0.137,-0.015 -43.11,-4.604 c -6.823,-0.729 -12.922,-3.524 -17.752,-7.691 -7.438,1.698 -14.687,-2.829 -16.626,-9.974 L 75.217,134.014 c 0,0 0.008,284.14 0.008,291.841 0,11.77 9.541,21.31 21.31,21.31 11.722,0 21.31,-9.543 21.31,-21.31 V 260.123 c 0,-2.541 2.059,-4.6 4.6,-4.6 2.541,0 4.6,2.059 4.6,4.6 v 165.733 c 0,11.77 9.541,21.31 21.31,21.31 11.769,0 21.31,-9.54 21.31,-21.31 0.001,-386.694 0.048,39.216 -0.248,-208.493 z"
   inkscape:connector-curvature="0"
   style="fill:#dc7500;fill-opacity:1;stroke:url(#linearGradient6706);stroke-width:0.99741781;stroke-miterlimit:4;stroke-dasharray:none;stroke-opacity:1" />

	<path
   id="path6309"
   d="m 81.97,105.446 c 15.485,-4.202 31.064,-8.431 46.902,-12.729 6.953,-1.888 14.959,1.665 17.325,10.382 l 12.974,47.8 c 0.093,0.01 10.072,1.076 10.168,1.086 l -0.03,-24.643 c -0.002,-1.963 1.582,-3.558 3.545,-3.569 1.963,-0.011 3.565,1.567 3.584,3.53 0,0.01 0,0.02 0,0.03 0.187,37.156 0.087,17.344 0.202,40.258 l -45.133,-4.82 c -9.751,-1.038 -18.502,6.019 -19.544,15.772 -1.042,9.752 6.02,18.502 15.772,19.544 l 64.877,6.929 c 5.103,0.538 10.089,-1.137 13.79,-4.481 3.75,-3.388 5.878,-8.213 5.853,-13.266 -0.031,-6.085 -0.272,-54.079 -0.302,-60.113 -0.116,-23.116 -19.062,-41.813 -42.024,-41.813 -84.175,0 -78.292,-0.146 -80.764,0.34 C 81.768,82.879 82.929,83.319 55.584,72.954 L 85.688,34.856 c -0.034,0.646 -0.052,1.296 -0.052,1.95 0,20.326 16.478,36.804 36.804,36.804 20.326,0 36.804,-16.478 36.804,-36.804 C 159.246,16.478 142.768,0 122.442,0 110.093,0 99.174,6.088 92.497,15.42 91.615,11.643 89.507,8.124 86.227,5.532 78.532,-0.55 67.364,0.759 61.284,8.456 l -48.597,61.5 C 9.178,74.397 7.996,80.245 9.505,85.7 c 1.509,5.456 5.528,9.865 10.821,11.871 10.567,4.005 41.812,15.848 51.443,19.499 0.783,-5.744 4.953,-10.199 10.201,-11.624 z"
   inkscape:connector-curvature="0"
   style="fill:#dc7500;fill-opacity:1;stroke:url(#linearGradient6708);stroke-width:0.99741781;stroke-miterlimit:4;stroke-dasharray:none;stroke-opacity:1" />

	<path
   id="path6311"
   d="m 133.072,148.111 11.158,1.191 -11.691,-43.075 -46.902,12.73 13.57,49.995 c 5.093,-13.523 18.828,-22.445 33.865,-20.841 z"
   inkscape:connector-curvature="0"
   style="fill:#dc7500;fill-opacity:1;stroke:url(#linearGradient6710);stroke-width:0.99741781;stroke-miterlimit:4;stroke-dasharray:none;stroke-opacity:1" />

</g>
      <g
         id="g6315"
         style="fill:#dc7500;fill-opacity:1;stroke:url(#linearGradient6714);stroke-width:0.99741781;stroke-miterlimit:4;stroke-dasharray:none;stroke-opacity:1">
</g>
      <g
         id="g6317"
         style="fill:#dc7500;fill-opacity:1;stroke:url(#linearGradient6716);stroke-width:0.99741781;stroke-miterlimit:4;stroke-dasharray:none;stroke-opacity:1">
</g>
      <g
         id="g6319"
         style="fill:#dc7500;fill-opacity:1;stroke:url(#linearGradient6718);stroke-width:0.99741781;stroke-miterlimit:4;stroke-dasharray:none;stroke-opacity:1">
</g>
      <g
         id="g6321"
         style="fill:#dc7500;fill-opacity:1;stroke:url(#linearGradient6720);stroke-width:0.99741781;stroke-miterlimit:4;stroke-dasharray:none;stroke-opacity:1">
</g>
      <g
         id="g6323"
         style="fill:#dc7500;fill-opacity:1;stroke:url(#linearGradient6722);stroke-width:0.99741781;stroke-miterlimit:4;stroke-dasharray:none;stroke-opacity:1">
</g>
      <g
         id="g6325"
         style="fill:#dc7500;fill-opacity:1;stroke:url(#linearGradient6724);stroke-width:0.99741781;stroke-miterlimit:4;stroke-dasharray:none;stroke-opacity:1">
</g>
      <g
         id="g6327"
         style="fill:#dc7500;fill-opacity:1;stroke:url(#linearGradient6726);stroke-width:0.99741781;stroke-miterlimit:4;stroke-dasharray:none;stroke-opacity:1">
</g>
      <g
         id="g6329"
         style="fill:#dc7500;fill-opacity:1;stroke:url(#linearGradient6728);stroke-width:0.99741781;stroke-miterlimit:4;stroke-dasharray:none;stroke-opacity:1">
</g>
      <g
         id="g6331"
         style="fill:#dc7500;fill-opacity:1;stroke:url(#linearGradient6730);stroke-width:0.99741781;stroke-miterlimit:4;stroke-dasharray:none;stroke-opacity:1">
</g>
      <g
         id="g6333"
         style="fill:#dc7500;fill-opacity:1;stroke:url(#linearGradient6732);stroke-width:0.99741781;stroke-miterlimit:4;stroke-dasharray:none;stroke-opacity:1">
</g>
      <g
         id="g6335"
         style="fill:#dc7500;fill-opacity:1;stroke:url(#linearGradient6734);stroke-width:0.99741781;stroke-miterlimit:4;stroke-dasharray:none;stroke-opacity:1">
</g>
      <g
         id="g6337"
         style="fill:#dc7500;fill-opacity:1;stroke:url(#linearGradient6736);stroke-width:0.99741781;stroke-miterlimit:4;stroke-dasharray:none;stroke-opacity:1">
</g>
      <g
         id="g6339"
         style="fill:#dc7500;fill-opacity:1;stroke:url(#linearGradient6738);stroke-width:0.99741781;stroke-miterlimit:4;stroke-dasharray:none;stroke-opacity:1">
</g>
      <g
         id="g6341"
         style="fill:#dc7500;fill-opacity:1;stroke:url(#linearGradient6740);stroke-width:0.99741781;stroke-miterlimit:4;stroke-dasharray:none;stroke-opacity:1">
</g>
      <g
         id="g6343"
         style="fill:#dc7500;fill-opacity:1;stroke:url(#linearGradient6742);stroke-width:0.99741781;stroke-miterlimit:4;stroke-dasharray:none;stroke-opacity:1">
</g>
    </g>
    <g
       id="g6660"
       transform="matrix(0.08081607,0,0,0.08081607,36.753587,67.393213)"
       style="stroke:none">
      <g
         id="g6601"
         style="fill:#008700;fill-opacity:1;stroke:none"
         transform="translate(7.4410502,-58.701619)">
	<path
   id="path6593"
   d="m 295.027,91.431 c 25.202,0 45.705,-20.508 45.705,-45.716 C 340.732,20.508 320.229,0 295.027,0 269.82,0 249.313,20.508 249.313,45.715 c 0,25.208 20.507,45.716 45.714,45.716 z"
   inkscape:connector-curvature="0"
   style="fill:#008700;fill-opacity:1;stroke:none" />

	<path
   id="path6595"
   d="m 164.08,279.878 c 2.674,0 5.183,-1.036 7.064,-2.917 l 32.96,-32.959 c 1.881,-1.882 2.917,-4.391 2.917,-7.064 0,-2.673 -1.036,-5.183 -2.917,-7.064 l -9.64,-9.641 c 0.462,-0.395 0.915,-0.804 1.349,-1.237 4.542,-4.542 6.96,-10.641 6.847,-17.212 1.874,-1.243 3.539,-2.814 4.896,-4.664 l 15.702,-21.41 c 2.268,-3.092 7.515,-8.369 10.593,-10.655 l 1.253,-0.93 -13.608,54.243 c -0.168,0.671 -0.263,1.332 -0.317,1.985 l -11.245,47.8 c -0.972,4.129 -3.594,11.351 -5.499,15.149 l -27.289,54.338 c -2.446,4.871 -2.849,10.402 -1.135,15.576 1.714,5.174 5.341,9.371 10.212,11.816 2.723,1.368 5.638,2.098 8.665,2.169 0.159,0.004 0.318,0.006 0.477,0.006 7.771,0 14.764,-4.311 18.25,-11.252 l 27.291,-54.341 c 3.306,-6.587 7.069,-16.956 8.754,-24.12 l 10.925,-46.439 h 18.93 c 0.009,0.008 0.016,0.017 0.025,0.023 l 26.137,22.702 -12.928,51.716 c -2.728,10.916 3.933,22.017 14.849,24.746 1.631,0.407 3.3,0.613 4.962,0.613 9.373,-0.001 17.507,-6.359 19.782,-15.461 l 13.413,-53.656 c 3.238,-12.95 -1.727,-28.703 -11.805,-37.456 l -25.397,-22.061 8.708,-34.717 c 5.185,10.155 16.115,18.897 27.093,21.508 l 36.9,8.778 c 1.476,0.352 2.987,0.529 4.494,0.529 8.993,0 16.729,-6.118 18.814,-14.878 2.469,-10.382 -3.968,-20.838 -14.349,-23.308 l -36.55,-8.694 c -0.545,-0.279 -1.606,-1.151 -1.984,-1.632 l -17.931,-39.223 c -3.141,-6.872 -10.054,-11.312 -17.612,-11.312 -0.279,0 -53.171,0 -53.171,0 -4.025,0 -8.175,2.029 -10.581,3.814 l -41.607,30.886 c -6.15,4.565 -14.204,12.667 -18.734,18.845 l -15.701,21.409 c -0.418,0.57 -0.795,1.162 -1.146,1.766 -5.936,0.292 -11.422,2.689 -15.558,6.825 -0.435,0.435 -0.843,0.888 -1.238,1.35 l -9.64,-9.64 c -1.881,-1.881 -4.39,-2.917 -7.064,-2.917 -2.674,0 -5.183,1.036 -7.064,2.917 l -32.959,32.96 c -1.881,1.882 -2.918,4.391 -2.918,7.064 0,2.673 1.036,5.183 2.918,7.064 l 55.342,55.343 c 1.882,1.884 4.391,2.92 7.065,2.92 z m 3.953,-88.665 c 1.329,-1.33 2.96,-2.29 4.763,-2.841 0.011,0.082 0.013,0.163 0.025,0.244 0.786,5.109 3.515,9.607 7.684,12.665 2.95,2.163 6.375,3.423 9.979,3.69 -0.482,2.144 -1.517,4.083 -3.063,5.629 -0.437,0.436 -0.913,0.822 -1.41,1.179 l -19.156,-19.156 c 0.356,-0.495 0.74,-0.973 1.178,-1.41 z"
   inkscape:connector-curvature="0"
   style="fill:#008700;fill-opacity:1;stroke:none" />

	<path
   id="path6597"
   d="m 436.9,402.838 c 0,-4.763 -3.577,-8.77 -8.318,-9.321 l -10.528,-1.232 c -1.563,-5.163 -3.71,-10.115 -6.395,-14.746 l 6.565,-8.258 c 2.958,-3.743 2.652,-9.103 -0.711,-12.467 l -13.186,-13.188 c -1.77,-1.769 -4.124,-2.742 -6.629,-2.742 -2.107,0 -4.181,0.722 -5.84,2.033 l -8.798,6.967 c -4.354,-2.313 -8.922,-4.175 -13.606,-5.545 l -1.3,-11.249 c -0.548,-4.716 -4.553,-8.292 -9.323,-8.32 H 340.19 c -4.764,0 -8.771,3.577 -9.32,8.32 l -1.298,11.152 c -4.936,1.405 -9.715,3.343 -14.234,5.772 l -8.968,-7.099 c -1.658,-1.31 -3.732,-2.031 -5.839,-2.031 -2.506,0 -4.86,0.974 -6.629,2.743 l -13.189,13.188 c -3.362,3.363 -3.668,8.724 -0.708,12.47 l 6.815,8.595 c -2.708,4.772 -4.868,9.862 -6.431,15.157 l -10.764,1.254 c -4.717,0.549 -8.294,4.553 -8.321,9.322 l 0.001,18.641 c 0,4.766 3.578,8.772 8.317,9.319 l 10.578,1.253 c 1.498,5.311 3.567,10.361 6.161,15.042 l -6.337,7.985 c -2.957,3.745 -2.651,9.107 0.712,12.469 l 13.188,13.187 c 1.769,1.77 4.123,2.743 6.629,2.743 2.107,0 4.18,-0.722 5.838,-2.032 l 7.868,-6.222 c 4.589,2.591 9.531,4.676 14.716,6.21 l 1.144,9.817 c 0.546,4.716 4.548,8.292 9.318,8.32 h 18.598 c 4.765,0 8.772,-3.577 9.321,-8.321 l 1.098,-9.486 c 5.454,-1.5 10.729,-3.661 15.706,-6.433 l 7.674,6.071 c 1.658,1.309 3.732,2.031 5.839,2.031 2.507,0 4.861,-0.975 6.629,-2.744 l 13.188,-13.186 c 3.364,-3.364 3.67,-8.724 0.711,-12.467 l -6.069,-7.673 c 2.848,-5.102 5.055,-10.54 6.571,-16.193 l 9.876,-1.142 c 4.714,-0.546 8.292,-4.549 8.322,-9.321 z m -66.839,31.218 c -5.53,5.53 -12.898,8.576 -20.749,8.576 -7.85,0 -15.218,-3.046 -20.747,-8.576 -5.53,-5.53 -8.576,-12.897 -8.576,-20.747 0,-7.85 3.045,-15.218 8.576,-20.748 5.529,-5.53 12.898,-8.576 20.747,-8.576 7.85,0 15.219,3.046 20.749,8.576 5.53,5.53 8.576,12.899 8.576,20.748 0,7.849 -3.046,15.216 -8.576,20.747 z"
   inkscape:connector-curvature="0"
   style="fill:#008700;fill-opacity:1;stroke:none" />

	<path
   id="path6599"
   d="m 267.518,445.289 c -0.417,-4.993 -4.503,-8.862 -9.498,-9.001 l -7.76,-0.248 c -1.706,-4.22 -3.865,-8.248 -6.431,-12 l 4.25,-6.428 c 2.757,-4.152 1.968,-9.729 -1.842,-12.979 l -10.434,-8.797 c -1.781,-1.495 -4.042,-2.319 -6.366,-2.319 -2.51,0 -4.897,0.944 -6.723,2.657 l -6.023,5.65 c -3.776,-1.614 -7.766,-2.86 -11.887,-3.713 l -1.663,-8.19 c -0.99,-4.843 -5.462,-8.275 -10.474,-7.853 l -13.59,1.146 c -4.992,0.418 -8.861,4.505 -8.998,9.498 l -0.272,8.275 c -4.114,1.574 -8.002,3.548 -11.581,5.881 l -7.055,-4.683 c -1.612,-1.071 -3.49,-1.637 -5.433,-1.637 -2.912,0 -5.66,1.265 -7.547,3.477 l -8.797,10.435 c -3.216,3.83 -3.07,9.457 0.337,13.087 l 5.516,5.889 c -1.936,4.238 -3.396,8.69 -4.351,13.265 l -7.794,1.593 c -4.893,1.001 -8.268,5.502 -7.851,10.472 l 1.146,13.592 c 0.421,4.991 4.507,8.86 9.502,8.999 l 7.753,0.227 c 1.649,4.362 3.757,8.479 6.278,12.267 l -4.07,6.156 c -2.758,4.151 -1.97,9.729 1.842,12.98 l 10.435,8.796 c 1.782,1.496 4.043,2.32 6.367,2.32 2.509,0 4.896,-0.944 6.72,-2.657 l 5.283,-4.956 c 4.127,1.872 8.452,3.285 12.885,4.211 l 1.403,6.979 c 0.883,4.622 4.931,7.977 9.627,7.978 h 0.001 c 0.273,0 0.548,-0.012 0.827,-0.035 l 13.587,-1.147 c 4.991,-0.417 8.862,-4.503 9.002,-9.496 l 0.222,-6.813 c 4.482,-1.654 8.792,-3.859 12.835,-6.567 l 5.872,3.882 c 1.612,1.071 3.49,1.637 5.433,1.637 2.912,0 5.661,-1.265 7.547,-3.477 l 8.798,-10.435 c 3.214,-3.83 3.069,-9.457 -0.336,-13.087 l -4.797,-5.121 c 2.049,-4.567 3.529,-9.326 4.409,-14.177 l 7.037,-1.425 c 4.894,-0.998 8.27,-5.5 7.852,-10.478 z m -56.111,30.412 c -4.777,5.671 -11.788,8.923 -19.233,8.923 -5.93,0 -11.684,-2.106 -16.206,-5.933 -5.13,-4.32 -8.268,-10.393 -8.834,-17.097 -0.567,-6.705 1.507,-13.219 5.842,-18.343 4.776,-5.67 11.786,-8.922 19.233,-8.922 5.929,0 11.684,2.106 16.206,5.932 5.13,4.322 8.267,10.396 8.833,17.101 0.567,6.704 -1.507,13.216 -5.841,18.339 z"
   inkscape:connector-curvature="0"
   style="fill:#008700;fill-opacity:1;stroke:none" />

</g>
      <g
         id="g6603"
         style="stroke:none">
</g>
      <g
         id="g6605"
         style="stroke:none">
</g>
      <g
         id="g6607"
         style="stroke:none">
</g>
      <g
         id="g6609"
         style="stroke:none">
</g>
      <g
         id="g6611"
         style="stroke:none">
</g>
      <g
         id="g6613"
         style="stroke:none">
</g>
      <g
         id="g6615"
         style="stroke:none">
</g>
      <g
         id="g6617"
         style="stroke:none">
</g>
      <g
         id="g6619"
         style="stroke:none">
</g>
      <g
         id="g6621"
         style="stroke:none">
</g>
      <g
         id="g6623"
         style="stroke:none">
</g>
      <g
         id="g6625"
         style="stroke:none">
</g>
      <g
         id="g6627"
         style="stroke:none">
</g>
      <g
         id="g6629"
         style="stroke:none">
</g>
      <g
         id="g6631"
         style="stroke:none">
</g>
    </g>
    <path
       style="fill:none;stroke:#000000;stroke-width:0.60000002;stroke-linecap:butt;stroke-linejoin:miter;stroke-miterlimit:4;stroke-dasharray:2.4, 1.2;stroke-dashoffset:0;stroke-opacity:1;marker-end:url(#marker6760)"
       d="m 152.67772,88.596585 c -67.017838,0.133633 -74.568202,0.06682 -74.568202,0.06682"
       id="path6750"
       inkscape:connector-curvature="0"
       sodipodi:nodetypes="cc" />
    <path
       style="fill:none;stroke:#000000;stroke-width:0.60000002;stroke-linecap:butt;stroke-linejoin:miter;stroke-miterlimit:4;stroke-dasharray:2.40000012, 1.20000006;stroke-dashoffset:0;stroke-opacity:1;marker-end:url(#marker7332)"
       d="m 133.90203,31.467724 c 22.11656,29.399647 22.11656,29.399647 22.11656,29.399647"
       id="path7124"
       inkscape:connector-curvature="0" />
    <path
       style="fill:none;stroke:#000000;stroke-width:0.60000002;stroke-linecap:butt;stroke-linejoin:miter;stroke-miterlimit:4;stroke-dasharray:2.40000012, 1.20000006;stroke-dashoffset:0;stroke-opacity:1;marker-end:url(#marker7586)"
       d="M 68.487816,58.796033 86.127605,33.204975"
       id="path7576"
       inkscape:connector-curvature="0" />
  </g>
</svg>
