<?xml version="1.0" encoding="UTF-8" standalone="no"?>
<!-- Generator: Adobe Illustrator 23.0.1, SVG Export Plug-In . SVG Version: 6.00 Build 0)  -->

<svg
   xmlns:dc="http://purl.org/dc/elements/1.1/"
   xmlns:cc="http://creativecommons.org/ns#"
   xmlns:rdf="http://www.w3.org/1999/02/22-rdf-syntax-ns#"
   xmlns:svg="http://www.w3.org/2000/svg"
   xmlns="http://www.w3.org/2000/svg"
   xmlns:sodipodi="http://sodipodi.sourceforge.net/DTD/sodipodi-0.dtd"
   xmlns:inkscape="http://www.inkscape.org/namespaces/inkscape"
   version="1.1"
   id="Capa_1"
   x="0px"
   y="0px"
   viewBox="0 0 125 60"
   xml:space="preserve"
   sodipodi:docname="logo.svg"
   width="125"
   height="60"
   inkscape:version="0.92.4 (5da689c313, 2019-01-14)"><metadata
   id="metadata8082"><rdf:RDF><cc:Work
       rdf:about=""><dc:format>image/svg+xml</dc:format><dc:type
         rdf:resource="http://purl.org/dc/dcmitype/StillImage" /><dc:title></dc:title></cc:Work></rdf:RDF></metadata><defs
   id="defs8080" /><sodipodi:namedview
   pagecolor="#ffffff"
   bordercolor="#666666"
   borderopacity="1"
   objecttolerance="10"
   gridtolerance="10"
   guidetolerance="10"
   inkscape:pageopacity="0"
   inkscape:pageshadow="2"
   inkscape:window-width="3840"
   inkscape:window-height="2035"
   id="namedview8078"
   showgrid="false"
   inkscape:zoom="4.7318296"
   inkscape:cx="375.80762"
   inkscape:cy="83.950323"
   inkscape:window-x="-13"
   inkscape:window-y="-13"
   inkscape:window-maximized="1"
   inkscape:current-layer="Capa_1" />
<style
   type="text/css"
   id="style8035">
	.st0{fill:#FF000D;}
	.st1{fill:#444242;}
	.st2{fill:#F9BB10;}
	.st3{fill:#332F2E;}
	.st4{fill:#A4A3A8;}
	.st5{fill:#595959;}
	.st6{fill:#C9F414;}
	.st7{fill:#003C55;}
	.st8{fill:#F9F203;}
	.st9{fill:#67666A;}
</style>
<g
   id="g8075"
   transform="matrix(0.0572467,0,0,0.0572467,-18.80186,-15.153671)">
	<g
   id="g8059">
		<path
   class="st0"
   d="m 544.57,1302.15 h -31.8 v -103.66 l -55.96,98.44 c -1.38,2.51 -3.3,4.41 -5.77,5.71 -2.47,1.29 -5.12,1.94 -7.95,1.94 -2.75,0 -5.32,-0.65 -7.71,-1.94 -2.39,-1.29 -4.27,-3.2 -5.64,-5.71 l -56.2,-98.44 v 103.66 h -31.56 v -160.59 c 0,-3.64 1.07,-6.88 3.22,-9.71 2.14,-2.83 4.95,-4.73 8.44,-5.7 1.7,-0.41 3.4,-0.55 5.1,-0.43 1.7,0.12 3.34,0.49 4.92,1.09 1.58,0.61 3.01,1.46 4.31,2.55 1.29,1.09 2.39,2.41 3.28,3.95 l 71.86,124.9 71.86,-124.9 c 1.86,-3.07 4.43,-5.26 7.71,-6.55 3.28,-1.29 6.7,-1.5 10.26,-0.61 3.4,0.97 6.19,2.87 8.37,5.7 2.18,2.83 3.28,6.07 3.28,9.71 v 160.59 z"
   id="path8037"
   inkscape:connector-curvature="0"
   style="fill:#ff000d" />
		<path
   class="st0"
   d="m 763.91,1231.75 c 0,10.6 -1.82,20.36 -5.46,29.25 -3.64,8.9 -8.7,16.59 -15.17,23.06 -6.47,6.47 -14.14,11.51 -23,15.11 -8.86,3.6 -18.51,5.4 -28.95,5.4 H 648.6 c -10.44,0 -20.11,-1.8 -29.01,-5.4 -8.9,-3.6 -16.59,-8.64 -23.07,-15.11 -6.47,-6.47 -11.55,-14.16 -15.23,-23.06 -3.68,-8.9 -5.52,-18.65 -5.52,-29.25 v -33.26 c 0,-10.52 1.84,-20.25 5.52,-29.19 3.68,-8.94 8.76,-16.63 15.23,-23.06 6.47,-6.43 14.16,-11.47 23.07,-15.11 8.9,-3.64 18.57,-5.46 29.01,-5.46 h 42.73 c 10.44,0 20.09,1.82 28.95,5.46 8.86,3.64 16.53,8.68 23,15.11 6.47,6.43 11.53,14.12 15.17,23.06 3.64,8.94 5.46,18.67 5.46,29.19 z m -31.56,-33.26 c 0,-6.23 -0.99,-11.87 -2.97,-16.93 -1.98,-5.06 -4.78,-9.39 -8.37,-12.99 -3.6,-3.6 -7.93,-6.39 -12.99,-8.37 -5.06,-1.98 -10.62,-2.97 -16.69,-2.97 H 648.6 c -6.15,0 -11.75,0.99 -16.81,2.97 -5.06,1.98 -9.41,4.78 -13.05,8.37 -3.64,3.6 -6.45,7.93 -8.44,12.99 -1.99,5.06 -2.97,10.7 -2.97,16.93 v 33.26 c 0,6.23 0.99,11.88 2.97,16.93 1.98,5.06 4.79,9.39 8.44,12.99 3.64,3.6 7.99,6.39 13.05,8.38 5.05,1.99 10.66,2.97 16.81,2.97 h 42.49 c 6.15,0 11.75,-0.99 16.81,-2.97 5.05,-1.98 9.41,-4.77 13.05,-8.38 3.64,-3.6 6.45,-7.93 8.44,-12.99 1.98,-5.06 2.97,-10.7 2.97,-16.93 v -33.26 z"
   id="path8039"
   inkscape:connector-curvature="0"
   style="fill:#ff000d" />
		<path
   class="st0"
   d="M 954.97,1302.15 H 811.01 c -2.27,0 -4.37,-0.4 -6.31,-1.21 -1.94,-0.81 -3.62,-1.92 -5.04,-3.34 -1.42,-1.42 -2.53,-3.1 -3.34,-5.04 -0.81,-1.94 -1.21,-4.04 -1.21,-6.31 v -158.16 h 31.56 v 142.5 h 128.3 z"
   id="path8041"
   inkscape:connector-curvature="0"
   style="fill:#ff000d" />
		<path
   class="st0"
   d="m 1110.7,1159.65 h -69.55 v 142.5 h -31.56 v -142.5 h -69.68 v -31.56 h 170.79 z"
   id="path8043"
   inkscape:connector-curvature="0"
   style="fill:#ff000d" />
		<path
   class="st0"
   d="m 1291.2,1302.15 h -113.86 c -4.37,0 -9.15,-0.77 -14.32,-2.31 -5.18,-1.53 -9.97,-4.07 -14.38,-7.58 -4.41,-3.52 -8.09,-8.09 -11.04,-13.72 -2.96,-5.62 -4.43,-12.52 -4.43,-20.7 v -113.86 c 0,-2.18 0.4,-4.25 1.21,-6.19 0.81,-1.94 1.92,-3.64 3.34,-5.1 1.42,-1.46 3.09,-2.59 5.04,-3.4 1.94,-0.81 4.05,-1.21 6.31,-1.21 h 142.14 v 31.56 h -126.48 v 98.2 c 0,4.13 1.09,7.28 3.28,9.47 2.18,2.18 5.38,3.28 9.59,3.28 h 113.61 v 31.56 z m -14.2,-71.13 h -99.65 v -31.8 H 1277 Z"
   id="path8045"
   inkscape:connector-curvature="0"
   style="fill:#ff000d" />
		<path
   class="st0"
   d="m 1495.61,1288.67 c 0,2.27 -0.42,4.37 -1.28,6.31 -0.85,1.94 -1.98,3.62 -3.4,5.04 -1.42,1.42 -3.09,2.53 -5.04,3.34 -1.94,0.81 -4,1.21 -6.19,1.21 -1.94,0 -3.91,-0.36 -5.89,-1.09 -1.99,-0.73 -3.75,-1.9 -5.28,-3.52 l -115.31,-120.41 v 122.6 h -31.56 v -160.59 c 0,-3.24 0.91,-6.17 2.73,-8.8 1.82,-2.63 4.15,-4.59 6.98,-5.89 2.99,-1.21 6.07,-1.52 9.23,-0.91 3.16,0.61 5.87,2.09 8.13,4.43 l 115.31,120.29 v -122.6 h 31.56 v 160.59 z"
   id="path8047"
   inkscape:connector-curvature="0"
   style="fill:#ff000d" />
		<path
   class="st1"
   d="m 1815.69,1302.15 h -31.8 v -103.66 l -55.96,98.44 c -1.38,2.51 -3.3,4.41 -5.76,5.71 -2.47,1.29 -5.12,1.94 -7.95,1.94 -2.75,0 -5.32,-0.65 -7.71,-1.94 -2.39,-1.29 -4.27,-3.2 -5.64,-5.71 l -56.2,-98.44 v 103.66 h -31.56 v -160.59 c 0,-3.64 1.07,-6.88 3.22,-9.71 2.14,-2.83 4.96,-4.73 8.44,-5.7 1.7,-0.41 3.4,-0.55 5.1,-0.43 1.7,0.12 3.34,0.49 4.91,1.09 1.58,0.61 3.01,1.46 4.31,2.55 1.29,1.09 2.38,2.41 3.28,3.95 l 71.86,124.9 71.86,-124.9 c 1.86,-3.07 4.43,-5.26 7.71,-6.55 3.28,-1.29 6.7,-1.5 10.26,-0.61 3.4,0.97 6.19,2.87 8.38,5.7 2.18,2.83 3.28,6.07 3.28,9.71 v 160.59 z"
   id="path8049"
   inkscape:connector-curvature="0"
   style="fill:#444242" />
		<path
   class="st1"
   d="m 1884.16,1302.15 h -31.56 v -174.06 h 31.56 z"
   id="path8051"
   inkscape:connector-curvature="0"
   style="fill:#444242" />
		<path
   class="st1"
   d="m 2095,1288.67 c 0,2.27 -0.43,4.37 -1.28,6.31 -0.85,1.94 -1.99,3.62 -3.4,5.04 -1.42,1.42 -3.09,2.53 -5.04,3.34 -1.94,0.81 -4.01,1.21 -6.19,1.21 -1.94,0 -3.91,-0.36 -5.89,-1.09 -1.98,-0.73 -3.74,-1.9 -5.28,-3.52 l -115.31,-120.41 v 122.6 h -31.56 v -160.59 c 0,-3.24 0.91,-6.17 2.73,-8.8 1.82,-2.63 4.15,-4.59 6.98,-5.89 2.99,-1.21 6.07,-1.52 9.22,-0.91 3.16,0.61 5.87,2.09 8.13,4.43 l 115.31,120.29 v -122.6 H 2095 Z"
   id="path8053"
   inkscape:connector-curvature="0"
   style="fill:#444242" />
		<path
   class="st1"
   d="m 2305.35,1229.32 c 0,10.6 -1.84,20.36 -5.53,29.25 -3.68,8.9 -8.76,16.57 -15.23,23 -6.47,6.43 -14.16,11.47 -23.06,15.11 -8.9,3.64 -18.57,5.46 -29.01,5.46 h -85.21 c -2.26,0 -4.37,-0.4 -6.31,-1.21 -1.94,-0.81 -3.62,-1.92 -5.04,-3.34 -1.42,-1.42 -2.53,-3.1 -3.34,-5.04 -0.81,-1.94 -1.21,-4.04 -1.21,-6.31 v -142.26 c 0,-2.18 0.4,-4.25 1.21,-6.19 0.81,-1.94 1.92,-3.64 3.34,-5.1 1.42,-1.46 3.09,-2.59 5.04,-3.4 1.94,-0.81 4.05,-1.21 6.31,-1.21 h 85.21 c 10.44,0 20.11,1.82 29.01,5.46 8.9,3.64 16.59,8.68 23.06,15.11 6.47,6.43 11.55,14.12 15.23,23.06 3.68,8.94 5.53,18.67 5.53,29.19 z m -31.56,-28.4 c 0,-6.15 -0.99,-11.77 -2.97,-16.87 -1.99,-5.1 -4.8,-9.45 -8.44,-13.05 -3.64,-3.6 -7.99,-6.39 -13.05,-8.37 -5.06,-1.98 -10.66,-2.97 -16.81,-2.97 h -69.55 v 110.94 h 69.55 c 6.15,0 11.75,-0.99 16.81,-2.97 5.06,-1.98 9.41,-4.77 13.05,-8.38 3.64,-3.6 6.45,-7.93 8.44,-12.99 1.98,-5.06 2.97,-10.7 2.97,-16.93 z"
   id="path8055"
   inkscape:connector-curvature="0"
   style="fill:#444242" />
		<path
   class="st1"
   d="m 2503.57,1250.93 c 0,6.23 -0.79,11.83 -2.37,16.81 -1.58,4.98 -3.66,9.37 -6.25,13.17 -2.59,3.8 -5.63,7.04 -9.1,9.71 -3.48,2.67 -7.08,4.86 -10.8,6.55 -3.72,1.7 -7.51,2.96 -11.35,3.76 -3.84,0.81 -7.47,1.21 -10.87,1.21 h -121.75 v -31.56 h 121.75 c 6.07,0 10.78,-1.78 14.14,-5.34 3.36,-3.56 5.04,-8.33 5.04,-14.32 0,-2.91 -0.45,-5.58 -1.33,-8.01 -0.89,-2.43 -2.17,-4.53 -3.82,-6.31 -1.66,-1.78 -3.68,-3.16 -6.07,-4.13 -2.39,-0.97 -5.04,-1.46 -7.95,-1.46 h -72.59 c -5.1,0 -10.6,-0.91 -16.51,-2.73 -5.91,-1.82 -11.39,-4.75 -16.45,-8.8 -5.06,-4.05 -9.26,-9.35 -12.62,-15.9 -3.36,-6.55 -5.04,-14.57 -5.04,-24.03 0,-9.46 1.68,-17.46 5.04,-23.97 3.36,-6.51 7.57,-11.82 12.62,-15.9 5.06,-4.08 10.54,-7.04 16.45,-8.86 5.91,-1.82 11.41,-2.73 16.51,-2.73 h 107.42 v 31.56 h -107.42 c -5.99,0 -10.66,1.82 -14.02,5.46 -3.36,3.64 -5.04,8.46 -5.04,14.45 0,6.07 1.68,10.86 5.04,14.38 3.36,3.52 8.03,5.28 14.02,5.28 h 72.59 0.24 c 3.4,0.08 7,0.55 10.8,1.4 3.8,0.85 7.59,2.16 11.35,3.94 3.76,1.78 7.34,4.03 10.74,6.74 3.4,2.71 6.41,5.97 9.04,9.77 2.63,3.81 4.71,8.18 6.25,13.11 1.54,4.93 2.31,10.51 2.31,16.75 z"
   id="path8057"
   inkscape:connector-curvature="0"
   style="fill:#444242" />
	</g>
	<path
   class="st0"
   d="m 1404.49,470.91 c 7.85,-13.42 21.81,-21.42 37.35,-21.42 0,0 0,0 0,0 15.54,0 29.5,8.01 37.35,21.42 l 132.41,226.36 56.76,-56.64 -193.03,-329.99 c -6.93,-11.85 -19.76,-19.21 -33.49,-19.21 -13.73,0 -26.56,7.36 -33.49,19.21 l -192.76,329.53 56.73,56.69 z"
   id="path8061"
   inkscape:connector-curvature="0"
   style="fill:#ff000d" />
	<path
   class="st0"
   d="m 1118.25,806.58 c -7.14,12.2 -19.8,20.16 -33.89,21.29 -14.08,1.12 -27.86,-4.7 -36.85,-15.6 l -24.49,-29.7 -55.07,55.18 94.49,114.6 c 8.06,9.78 20.41,14.98 33.04,13.99 12.63,-1.02 23.99,-8.15 30.38,-19.09 l 74.08,-126.63 -56.73,-56.69 z"
   id="path8063"
   inkscape:connector-curvature="0"
   style="fill:#ff000d" />
	<path
   class="st0"
   d="m 772.83,479.11 c -7.4,-8.97 -18.31,-14.12 -29.93,-14.12 -11.63,0 -22.54,5.14 -29.94,14.12 L 342.45,928.04 c -5.22,6.32 -7.66,14.3 -6.88,22.46 0.78,8.16 4.7,15.53 11.03,20.75 l 12.52,10.32 c 13.04,10.75 32.42,8.9 43.19,-4.15 L 709.52,605.23 c 8.25,-9.99 20.41,-15.73 33.37,-15.73 0,0 0.01,0 0.01,0 12.96,0 25.13,5.74 33.38,15.75 l 103.07,125.01 55.17,-55.06 z"
   id="path8065"
   inkscape:connector-curvature="0"
   style="fill:#ff000d" />
	<path
   class="st2"
   d="m 1479.81,872.01 -6.98,6.98 -0.2,-0.13 -0.53,0.53 c -8.39,8.39 -19.4,12.61 -30.43,12.65 -11.03,-0.04 -22.04,-4.26 -30.43,-12.65 l -0.53,-0.53 -0.2,0.13 -6.98,-6.98 -77.74,31.99 88.28,88.28 c 7.33,7.33 17.07,11.36 27.44,11.36 0.06,0 0.11,0 0.17,0 0.06,0 0.11,0 0.17,0 10.36,0 20.11,-4.03 27.44,-11.36 L 1557.57,904 Z"
   id="path8067"
   inkscape:connector-curvature="0"
   style="fill:#f9bb10" />
	<path
   class="st2"
   d="m 1760.72,700.84 c 8.17,-8.17 19.04,-12.68 30.6,-12.68 11.56,0 22.43,4.5 30.6,12.68 l 47.16,47.16 55.31,-54.14 -105.63,-105.93 c -7.32,-7.32 -17.07,-11.36 -27.43,-11.36 -10.36,0 -20.1,4.03 -27.43,11.36 l -174.68,174.67 77.74,31.99 z"
   id="path8069"
   inkscape:connector-curvature="0"
   style="fill:#f9bb10" />
	<path
   class="st2"
   d="m 1119.55,587.94 c -7.3,-7.3 -16.99,-11.33 -27.31,-11.36 -10.32,0.03 -20.01,4.06 -27.31,11.36 l -43.94,43.82 -122,121.66 49.92,60.55 112.85,-113.12 c 8.15,-8.15 18.97,-12.65 30.48,-12.68 0.04,0 0.08,0 0.12,0 11.56,0 22.43,4.5 30.6,12.68 l 93.68,93.68 77.57,-31.92 z"
   id="path8071"
   inkscape:connector-curvature="0"
   style="fill:#f9bb10" />
	<path
   class="st1"
   d="M 2479.18,928.04 2170.72,553.5 c -7.4,-8.97 -18.31,-14.11 -29.93,-14.11 -11.62,0 -22.54,5.14 -29.93,14.12 l -0.45,0.49 -306.63,300.41 c -12.31,12.07 -30.59,15.68 -46.57,9.18 l -290.7,-118.04 c -0.4,-0.16 -0.8,-0.34 -1.19,-0.51 -0.05,-0.02 -0.1,-0.05 -0.15,-0.07 -0.39,-0.18 -0.78,-0.36 -1.16,-0.55 0,0 0,0 0,0 0,0 0,0 0,0 -0.28,-0.14 -0.56,-0.28 -0.83,-0.42 -0.02,-0.01 -0.03,-0.02 -0.05,-0.02 -0.25,-0.13 -0.5,-0.26 -0.75,-0.4 -0.03,-0.01 -0.05,-0.03 -0.08,-0.04 -0.23,-0.13 -0.46,-0.25 -0.69,-0.37 -0.03,-0.02 -0.06,-0.03 -0.09,-0.05 -0.24,-0.13 -0.48,-0.27 -0.72,-0.4 -0.38,-0.21 -0.76,-0.42 -1.15,-0.62 -0.13,-0.07 -0.26,-0.13 -0.4,-0.2 -0.25,-0.13 -0.51,-0.26 -0.76,-0.38 -0.16,-0.08 -0.32,-0.15 -0.48,-0.22 -0.23,-0.11 -0.46,-0.21 -0.69,-0.31 -0.18,-0.08 -0.35,-0.15 -0.53,-0.22 -0.22,-0.09 -0.43,-0.18 -0.65,-0.27 -0.19,-0.07 -0.38,-0.15 -0.56,-0.22 -0.21,-0.08 -0.42,-0.16 -0.63,-0.23 -0.2,-0.07 -0.39,-0.14 -0.59,-0.21 -0.2,-0.07 -0.41,-0.14 -0.61,-0.2 -0.2,-0.07 -0.41,-0.13 -0.61,-0.19 -0.2,-0.06 -0.4,-0.12 -0.59,-0.18 -0.21,-0.06 -0.42,-0.12 -0.64,-0.18 -0.19,-0.05 -0.38,-0.1 -0.58,-0.15 -0.22,-0.06 -0.44,-0.11 -0.66,-0.16 -0.19,-0.04 -0.37,-0.08 -0.56,-0.13 -0.23,-0.05 -0.46,-0.1 -0.68,-0.15 -0.18,-0.04 -0.35,-0.07 -0.53,-0.1 -0.24,-0.04 -0.48,-0.09 -0.72,-0.13 -0.16,-0.03 -0.33,-0.05 -0.49,-0.08 -0.25,-0.04 -0.5,-0.08 -0.76,-0.11 -0.14,-0.02 -0.28,-0.03 -0.42,-0.05 -0.28,-0.03 -0.55,-0.07 -0.83,-0.1 -0.09,-0.01 -0.17,-0.01 -0.26,-0.02 -1.13,-0.11 -2.26,-0.16 -3.38,-0.17 0,0 0,0 -0.01,0 -6.45,0.04 -12.91,1.69 -18.76,4.97 -0.97,0.55 -2.04,1.14 -3.2,1.71 -0.8,0.39 -1.63,0.78 -2.5,1.13 l -177.78,72.19 63.17,63.17 0.39,-0.16 118.59,-48.97 c 6.45,-2.66 13.33,-3.68 20.09,-3.13 2.11,-0.17 4.23,-0.2 6.35,-0.06 0,0 0.01,0 0.01,0 0.42,0.03 0.84,0.06 1.25,0.1 0.02,0 0.03,0 0.05,0 0.41,0.04 0.81,0.08 1.22,0.13 0.03,0 0.06,0.01 0.09,0.01 0.39,0.05 0.78,0.1 1.17,0.16 0.05,0.01 0.09,0.02 0.14,0.02 0.37,0.06 0.74,0.12 1.12,0.19 0.07,0.01 0.14,0.03 0.2,0.04 0.35,0.07 0.7,0.13 1.05,0.21 0.09,0.02 0.18,0.04 0.27,0.06 0.33,0.07 0.66,0.15 0.98,0.23 0.12,0.03 0.23,0.06 0.35,0.09 0.3,0.08 0.6,0.15 0.9,0.24 0.15,0.04 0.3,0.09 0.44,0.13 0.27,0.08 0.53,0.15 0.8,0.24 0.19,0.06 0.37,0.12 0.56,0.18 0.23,0.07 0.45,0.14 0.68,0.22 0.24,0.08 0.48,0.17 0.72,0.26 0.17,0.06 0.34,0.12 0.51,0.18 0.41,0.15 0.82,0.32 1.22,0.48 l 271.12,111.94 33.44,13.81 c 2.11,0.87 4.02,1.92 5.64,2.83 16.38,9.2 36.95,5.35 48.91,-9.16 l 0.47,-0.51 285.89,-278.14 c 8.65,-8.41 20.55,-12.85 32.56,-12.19 12.04,0.67 23.35,6.39 31.02,15.7 l 248.11,301.3 c 5.21,6.33 12.58,10.25 20.74,11.04 8.18,0.8 16.15,-1.65 22.47,-6.87 l 12.51,-10.32 c 13.08,-10.72 14.95,-30.1 4.19,-43.15 z"
   id="path8073"
   inkscape:connector-curvature="0"
   style="fill:#444242" />
</g>
</svg>